:SAMPLES-PER-SECOND 30
:FULLY-SPECIFIED
:DEGREES
125
root  58.404 32.9431 -2.77445 -171.233 -6.39659 -173.543
RightUpLeg  -59.8755 -16.0929 15.6923
RightLeg  50.204 -5.41837 -7.29853
RightFoot  -7.90454 -0.053868 0.0198038
RightToes  0.000482159 0.542163 -0.142577
Spine  55.0473 -0.183891 3.52958
Spine1  5.48867 -1.62587 7.72613
HEad  8.5123 -6.97949 5.38741
LeftShoulder1  6.39186 -13.0269 -32.627
LeftArm  -24.9783 -0.0740054 -31.2264
LeftForeArm  150.924 -81.6584 -104.202
LeftHand  -0.25398 0.0180481 5.50724
RightShoulder  3.67818 8.05756 25.7284
RightArm  -21.7309 1.60663 38.6549
RightForeArm  67.3721 79.1883 76.1712
RightHand  -2.09335 4.43535 -24.7142
LeftUpLeg  -62.3041 5.52988 2.84619
LeftLeg  53.7759 5.20386 8.06316
LeftFoot  -2.91277 -0.124709 1.93147
LeftToes  1.06246e-005 4.65855e-005 -8.18503e-006
126
root  58.6613 32.0982 -2.15623 -173.371 -6.56154 -173.59
RightUpLeg  -61.1531 -16.0591 15.6765
RightLeg  53.8693 -5.24755 -8.0852
RightFoot  -8.31571 -0.0463161 -0.375861
RightToes  0.000482159 0.542163 -0.142577
Spine  56.2571 -0.0649984 3.20152
Spine1  5.5286 -1.65095 7.48853
HEad  7.90149 -6.51952 5.16415
LeftShoulder1  6.3326 -12.9702 -32.4011
LeftArm  -25.8578 0.389855 -30.7415
LeftForeArm  168.648 -80.5231 -121.806
LeftHand  -0.25398 0.0180481 5.50724
RightShoulder  3.67404 8.10045 25.5687
RightArm  -22.3419 1.63966 38.869
RightForeArm  78.134 79.519 85.8622
RightHand  -2.00912 4.08767 -24.5864
LeftUpLeg  -63.3996 4.98469 3.30891
LeftLeg  56.9708 4.88568 8.56757
LeftFoot  -2.99331 -0.146396 2.25494
LeftToes  1.06246e-005 4.65855e-005 -8.18503e-006
127
root  58.9103 31.2196 -1.52927 -175.509 -6.44389 -174.01
RightUpLeg  -62.4091 -15.7957 15.2371
RightLeg  57.4742 -5.09171 -9.01555
RightFoot  -8.77515 -0.0433792 -0.729892
RightToes  0.000482159 0.542163 -0.142577
Spine  57.1298 0.314751 2.55251
Spine1  5.45121 -1.62004 7.35698
HEad  7.19482 -5.72006 4.65126
LeftShoulder1  6.34086 -12.9539 -32.4888
LeftArm  -26.6386 0.66857 -29.9352
LeftForeArm  -175.612 -78.556 -135.966
LeftHand  -0.25398 0.0180481 5.50724
RightShoulder  3.6529 8.14549 25.2513
RightArm  -22.6588 1.51746 39.0356
RightForeArm  87.8188 79.5026 95.4893
RightHand  -1.93279 3.76071 -24.4921
LeftUpLeg  -64.4063 4.66388 3.31415
LeftLeg  59.9615 4.62437 9.16242
LeftFoot  -2.97243 -0.171791 2.59427
LeftToes  1.06246e-005 4.65855e-005 -8.18503e-006
128
root  59.1366 30.3105 -0.888856 -177.723 -6.19254 -174.485
RightUpLeg  -63.595 -15.3065 14.7579
RightLeg  60.8396 -5.04723 -10.2422
RightFoot  -8.76349 -0.0159269 -1.88868
RightToes  0.000482159 0.542163 -0.142577
Spine  57.741 0.581299 2.23713
Spine1  5.24282 -1.46919 6.88706
HEad  6.20406 -5.71787 4.51413
LeftShoulder1  6.42873 -13.0657 -32.7586
LeftArm  -27.2849 0.782635 -28.7431
LeftForeArm  -160.808 -75.6686 -147.236
LeftHand  -0.25398 0.0180481 5.50724
RightShoulder  3.62714 8.17461 24.9387
RightArm  -22.85 1.19724 39.0313
RightForeArm  96.5765 79.1389 105.178
RightHand  -1.80362 3.23919 -24.2279
LeftUpLeg  -65.3871 4.6749 3.11907
LeftLeg  62.8577 4.30742 9.69612
LeftFoot  -2.79801 -0.188389 2.74809
LeftToes  1.06246e-005 4.65855e-005 -8.18503e-006
129
root  59.3372 29.3839 -0.213145 179.808 -5.93108 -174.985
RightUpLeg  -64.5494 -14.8482 14.271
RightLeg  63.838 -4.92626 -11.4108
RightFoot  -8.15957 0.0428665 -3.52055
RightToes  0.000482159 0.542163 -0.142577
Spine  58.1892 0.562296 2.28806
Spine1  5.04859 -1.26301 5.9675
HEad  5.18567 -6.22111 4.52933
LeftShoulder1  6.51456 -13.234 -32.881
LeftArm  -27.8833 0.87223 -27.7148
LeftForeArm  -149.223 -72.1157 -155.204
LeftHand  -0.25398 0.0180481 5.50724
RightShoulder  3.62219 8.19071 24.8496
RightArm  -23.0101 0.909835 38.8046
RightForeArm  104.954 78.5194 114.021
RightHand  -1.58051 2.38475 -23.5532
LeftUpLeg  -66.0994 5.02696 2.73003
LeftLeg  65.5135 3.85649 9.89602
LeftFoot  -2.5256 -0.204693 2.85269
LeftToes  1.06246e-005 4.65855e-005 -8.18503e-006
130
root  59.5117 28.4252 0.485181 176.961 -5.58543 -175.741
RightUpLeg  -65.1463 -14.4941 13.4236
RightLeg  66.7297 -4.58887 -12.2738
RightFoot  -7.59932 0.0957995 -4.51524
RightToes  0.000482159 0.542163 -0.142577
Spine  58.4027 0.520138 2.21651
Spine1  5.07223 -1.1158 5.03875
HEad  4.38689 -6.12287 4.03317
LeftShoulder1  6.5504 -13.3366 -32.8563
LeftArm  -28.4599 0.937465 -27.2271
LeftForeArm  -143.659 -68.835 -159.783
LeftHand  -0.25398 0.0180481 5.50724
RightShoulder  3.64666 8.26436 24.8646
RightArm  -23.057 0.777943 38.5239
RightForeArm  113.086 77.8378 121.073
RightHand  -1.32523 1.41691 -22.5472
LeftUpLeg  -66.3735 5.49897 2.14765
LeftLeg  67.9753 3.36011 9.88338
LeftFoot  -2.07694 -0.219831 2.86824
LeftToes  1.06246e-005 4.65855e-005 -8.18503e-006
131
root  59.6489 27.4323 1.13839 173.731 -5.10722 -176.623
RightUpLeg  -65.3018 -14.1852 12.2918
RightLeg  69.7057 -4.07798 -12.9164
RightFoot  -7.32982 0.116725 -4.74342
RightToes  0.000482159 0.542163 -0.142577
Spine  58.3108 0.573096 2.03997
Spine1  5.29471 -1.02808 4.38906
HEad  3.74406 -5.18904 2.95817
LeftShoulder1  6.57484 -13.3816 -32.8971
LeftArm  -28.9245 0.925421 -27.1665
LeftForeArm  -143.02 -66.5501 -162.004
LeftHand  -0.25398 0.0180481 5.50724
RightShoulder  3.70057 8.46679 24.7876
RightArm  -22.9756 0.671302 38.3532
RightForeArm  120.691 77.2742 126.112
RightHand  -1.11192 0.603925 -21.4659
LeftUpLeg  -66.2406 5.7508 1.73755
LeftLeg  70.4729 2.91944 10.0116
LeftFoot  -1.26068 -0.229691 2.6922
LeftToes  1.06246e-005 4.65855e-005 -8.18503e-006
